<svg width="2000" height="601" viewBox="0 0 2000 601" fill="none" xmlns="http://www.w3.org/2000/svg">
<g clip-path="url(#clip0_1124_2040)" opacity="0.4">
<path d="M0 335.919L17.44 325.421L40.88 294.971C51.04 285.836 57.76 286.477 70.32 286.477C86.56 286.477 97.52 296.253 107.28 306.991L125.52 300.58H140.8L155.6 318.209H179.36L197.2 302.263L231.92 298.977L286.56 257.709L297.04 252.26L307.6 254.984L351.28 219.485L365.6 217.883L376.08 225.495L392.24 210.59L427.36 206.824L445.2 200.894L484.16 169.963L497.36 174.851L523.28 172.126L554.8 131.98L567.52 121.963L576.4 124.687L597.68 108.18L609.36 111.465L637.68 100.407L648.96 101.449L663.36 109.302L681.2 106.577L696.88 116.273L711.28 99.2852L719.04 109.783L735.2 102.01L743.84 109.783L773.68 85.0215L792.72 98.2435L823.76 81.1751L889.52 23.2387L927.28 4.808L938.56 0L992.32 49.1217L1014.08 50.7244L1080.32 109.302L1136.08 69.716L1199.92 40.3872L1263.36 88.4672L1281.2 90.0699L1306.24 93.9163L1322.48 90.6308L1333.44 94.958L1370.72 129.816L1383.44 131.419L1403.52 159.706L1423.2 165.155L1444.48 196.006L1456.32 196.567L1464.96 202.016L1469.28 222.21L1490 218.924L1519.36 246.17L1533.2 247.772L1555.52 271.973L1565.52 276.861L1607.12 318.209L1651.28 344.093L1669.12 346.256L1677.76 355.471L1704.96 363.084L1728.96 361.481L1741.68 357.635L1767.6 374.223L1796.88 402.51L1807.44 386.563L1829.76 380.072L1871.36 393.615L1891.28 386.002L1905.68 396.58L1952.56 392.012L1968.72 386.563L2000 405.795V601H0L0 335.919Z" fill="url(#paint0_linear_1124_2040)"/>
<path d="M933.6 0L927.2 4.808L943.36 25.4023L967.36 41.9899L986.72 50.7244L981.84 43.1117L938.48 0H933.6Z" fill="#8A8A8A"/>
<path opacity="0.2" d="M1200 40.3867L1148.32 89.0276L1137.76 90.6303L1088.24 118.757L1110.32 129.816L1137.76 124.126L1192.96 54.0094L1248.16 102.009L1263.44 88.4667L1200 40.3867Z" fill="#6A6A6A"/>
<path opacity="0.2" d="M1216.8 81.1758L1241.36 118.197L1232.72 96.6415L1216.8 81.1758Z" fill="#D9D9D9"/>
<path opacity="0.2" d="M927.2 4.80859L910.48 48.5614L903.2 80.6147L888.88 89.5897L880.24 150.972L866.4 81.1757L856.96 97.1222L843.2 117.156L837.76 143.92L849.36 189.516L865.04 136.307L889.44 103.613L905.6 81.1757L911.04 24.281L927.2 4.80859Z" fill="#D9D9D9"/>
<path opacity="0.2" d="M949.6 23.2383L967.12 62.5837L986.48 73.0011L971.44 82.7773L1008.64 112.507L986.48 73.0011L976.8 50.724L949.6 23.2383Z" fill="#D9D9D9"/>
<path opacity="0.2" d="M1195.2 108.18L1184.64 136.867L1197.36 152.574L1205.44 147.124L1225.68 177.014L1208.72 165.154L1197.36 170.523L1207.12 191.679L1244.88 222.209L1232.16 193.281L1201.12 161.869L1202.24 145.522L1195.2 131.418L1202.72 117.635L1195.2 108.18Z" fill="#D9D9D9"/>
<path opacity="0.2" d="M986.4 121.965L965.12 168.362L960.8 191.681L1005.52 152.576L986.4 141.197V121.965Z" fill="#D9D9D9"/>
<path opacity="0.2" d="M1101.6 233.668L1129.04 240.72L1142.8 254.983L1160.64 251.217L1181.92 262.035L1152 264.68L1128 245.768L1101.6 233.668Z" fill="#D9D9D9"/>
<path opacity="0.2" d="M1191.2 226.055L1205.2 242.883L1215.2 246.168L1211.2 261.474L1197.68 241.28L1191.2 226.055Z" fill="#D9D9D9"/>
<path opacity="0.2" d="M561.04 196.566L579.92 200.894L585.36 206.343L570.24 202.015L561.04 196.566Z" fill="#D9D9D9"/>
<path opacity="0.2" d="M653.84 225.496L658.72 233.109L653.28 241.282L653.84 225.496Z" fill="#D9D9D9"/>
<path opacity="0.2" d="M704.48 237.434L711.521 241.28L704.48 257.146V237.434Z" fill="#D9D9D9"/>
<path opacity="0.2" d="M819.2 304.988L824.64 310.357L819.2 311.96V304.988Z" fill="#D9D9D9"/>
<path opacity="0.2" d="M1000.8 280.707L1005.2 286.156L1000.8 287.759V280.707Z" fill="#D9D9D9"/>
<path opacity="0.2" d="M1374.4 274.695L1380.32 277.981L1376.56 280.705L1374.4 274.695Z" fill="#D9D9D9"/>
<path opacity="0.2" d="M752.48 114.108L768.16 104.652L757.92 129.814L749.28 139.59L743.28 169.961L749.76 138.469L764.88 117.153L752.48 114.108Z" fill="#D9D9D9"/>
<path d="M1506.23 430.133L1518.37 424.211L1535.12 428.532L1573.67 427.972L1601.21 436.615L1623.91 432.854L1658.76 440.696L1678.88 457.502L1695.96 447.739L1710.8 477.59L1725.97 465.665L1741.93 482.472L1754.75 461.264L1767.67 479.19L1782.85 463.425L1798.02 476.469L1812.86 463.984L1832.19 472.708L1870.86 467.266L1895.02 463.425L1939.98 457.982L1970.78 445.018L2000 446.342V601.001H1114V542.79L1115.64 543.853L1128.57 536.73L1144.42 543.853L1156.55 538.972L1176.67 554.417L1190.39 543.853L1205.56 547.854L1224.89 530.809L1239.73 532.409L1266.93 503.278L1291.55 496.236L1332.01 464.545L1388.89 442.297L1417.21 443.897L1458.46 433.414L1490.27 434.454L1499.38 423.09L1506.23 430.133Z" fill="url(#paint1_linear_1124_2040)"/>
<path d="M0 380.633L17.44 374.703L31.28 383.918L40.96 379.03L63.6 392.012L72.24 388.726L105.92 398.743L117.28 397.621L182.24 431.998L199.28 426.549L208.4 435.284L231.6 421.661L255.6 409.481L268.88 411.164L279.36 404.112L289.36 407.878L298 402.509L309.36 406.837L319.04 401.948L336.88 407.878L371.52 425.508L393.36 431.998L409.2 424.386L434.32 422.783L456.24 435.765L488.24 441.214L505.44 445.06L532.96 450.509L546.72 441.775L557.28 454.276L568.08 441.214L578.88 457L588.08 439.05L597.2 460.286L608.56 443.458L619.36 455.397L629.92 425.508L642.08 435.284L656.4 418.456L681.2 410.603L697.36 414.369L716.96 405.715L744.4 406.276L756.32 401.948L764.96 407.878L769.84 400.827L776.32 412.206L798.96 411.164L828.32 421.661L848.48 420.059L888.96 442.336L917.76 474.068L935.28 481.12L954.64 510.289L965.2 508.686L978.96 525.754L989.76 521.748L999.52 532.325L1013.84 516.86L1022.48 521.748L1033.76 514.616L1042.96 521.748L1054.32 511.411L1064.32 517.34L1078.08 507.564L1086.72 512.452L1102.96 503.237L1113.76 508.125L1132.88 496.826L1144.72 500.032L1169.84 486.569L1185.52 488.172L1209.28 481.12L1223.6 483.845L1241.44 473.027L1255.28 476.232L1269.04 469.741L1283.92 475.19L1294.48 469.741L1312.32 475.19L1330.64 501.634L1343.6 494.102L1355.76 508.125L1365.76 497.307L1376.24 511.411L1386.8 500.032L1397.36 512.452L1408.64 501.634L1419.44 516.299L1430 506.522L1440.8 521.748L1450 515.738L1461.84 532.325L1469.92 525.754L1485.04 544.265L1497.2 539.377L1513.92 551.317L1530.64 545.868L1542 555.324L1557.68 542.582L1566.8 552.359L1580.08 542.582L1590.08 552.359L1602 540.98L1612.48 550.756L1625.2 540.98L1637.92 553.721L1651.68 542.582L1662.48 552.92L1676.88 545.868L1689.84 553.721L1707.68 545.868L1719.52 553.721L1732.24 540.98L1743.6 553.721L1756.32 534.489L1766.88 549.153L1781.2 537.694L1794.96 542.582L1810.64 537.694L1824.48 540.98L1838.24 532.325L1853.12 534.489L1865.28 537.694L1879.68 529.601L1893.44 540.98L1906.72 529.601L1919.68 540.98L1934 534.489L1949.12 542.582L1965.84 532.325L1981.52 547.471L1990.16 537.694L2000 545.868V601H0L0 380.633Z" fill="url(#paint2_linear_1124_2040)"/>
</g>
<defs>
<linearGradient id="paint0_linear_1124_2040" x1="1000" y1="0" x2="1000" y2="601" gradientUnits="userSpaceOnUse">
<stop stop-color="#7B7B7B"/>
<stop offset="1" stop-color="#5E5E5E"/>
</linearGradient>
<linearGradient id="paint1_linear_1124_2040" x1="1176" y1="623" x2="1176" y2="397" gradientUnits="userSpaceOnUse">
<stop stop-color="#555555"/>
<stop offset="1" stop-color="#3F3F3F"/>
</linearGradient>
<linearGradient id="paint2_linear_1124_2040" x1="1000" y1="374.703" x2="1000" y2="601" gradientUnits="userSpaceOnUse">
<stop stop-color="#4A4A4A"/>
<stop offset="1" stop-color="#2B2B2B"/>
</linearGradient>
<clipPath id="clip0_1124_2040">
<rect width="2000" height="601" fill="white"/>
</clipPath>
</defs>
</svg>
