<svg width="105" height="105" viewBox="0 0 105 105" fill="none" xmlns="http://www.w3.org/2000/svg">
<path d="M82.678 39.2349H91.4282V4.23438H82.678V12.9845H73.9279V21.7347H82.678V39.2349ZM12.6769 91.7358H21.427V82.9856H12.6769V91.7358ZM3.92676 82.9856H12.6769V39.2349H3.92676V82.9856ZM21.427 100.486H82.678V91.7358H21.427V100.486ZM38.9273 82.9856H65.1777V74.2355H56.4276V65.4854H47.6775V74.2355H38.9273V82.9856ZM30.1772 56.7352H38.9273V39.2349H30.1772V56.7352ZM12.6769 39.2349H21.427V21.7347H30.1772V12.9845H21.427V4.23438H12.6769V39.2349ZM82.678 91.7358H91.4282V82.9856H82.678V91.7358ZM65.1777 56.7352H73.9279V39.2349H65.1777V56.7352ZM30.1772 30.4848H73.9279V21.7347H30.1772V30.4848ZM91.4282 82.9856H100.178V39.2349H91.4282V82.9856Z" fill="black"/>
</svg>
