<svg width="121" height="121" viewBox="0 0 121 121" fill="none" xmlns="http://www.w3.org/2000/svg">
<path d="M74.5365 11.8207C77.9078 15.4646 82.6469 17.5362 87.6111 17.5362L103.188 17.5362C112.686 17.5362 120.386 25.236 120.386 34.7342L120.386 103.802C120.386 113.3 112.686 121 103.188 121L5.99999 121C2.68628 121 -1.03433e-05 118.314 -1.00536e-05 115L-1.5035e-06 17.198C-6.73138e-07 7.6998 7.6998 6.73138e-07 17.198 1.50349e-06L56.082 4.90284e-06C60.875 5.32187e-06 65.4507 2.00024 68.7057 5.51848L74.5365 11.8207Z" fill="#7C3B6C"/>
</svg>
