<svg width="3" height="55" viewBox="0 0 3 55" fill="none" xmlns="http://www.w3.org/2000/svg">
<path d="M0.99707 50.9683C0.99707 50.6929 0.773868 50.4697 0.498535 50.4697C0.223201 50.4697 -3.75266e-07 50.2465 -3.99336e-07 49.9712L-4.63691e-06 1.49902C-4.70933e-06 0.670595 0.671568 -0.000976359 1.5 -0.000976431C2.32842 -0.000976504 3 0.670596 3 1.49902L3 49.9683C3 50.2452 2.77549 50.4697 2.49853 50.4697C2.22158 50.4697 1.99707 50.6942 1.99707 50.9712L1.99707 54.0391C1.99707 54.3152 1.77321 54.5391 1.49707 54.5391C1.22093 54.5391 0.99707 54.3152 0.99707 54.0391L0.99707 50.9683Z" fill="white"/>
</svg>
