<svg width="18" height="18" viewBox="0 0 18 18" fill="none" xmlns="http://www.w3.org/2000/svg">
<g clip-path="url(#clip0_855_2191)">
<path fill-rule="evenodd" clip-rule="evenodd" d="M2.28507 0.0691105C2.39174 0.015837 2.51111 -0.0067249 2.62986 0.00394649C2.74861 0.0146179 2.86205 0.0581021 2.9575 0.129539L7.99365 3.91854C8.66156 3.83884 9.33659 3.83884 10.0045 3.91854L15.0432 0.129539C15.1387 0.0575367 15.2524 0.0136054 15.3715 0.00268532C15.4906 -0.00823476 15.6104 0.0142894 15.7174 0.067725C15.8244 0.121161 15.9144 0.203389 15.9772 0.305162C16.0401 0.406936 16.0733 0.52422 16.0731 0.643825L16.0731 11.251L17.0348 11.251C17.2905 11.251 17.5358 11.3526 17.7166 11.5334C17.8975 11.7142 17.9991 11.9595 17.9991 12.2153C17.9991 12.471 17.8975 12.7163 17.7166 12.8971C17.5358 13.0779 17.2905 13.1795 17.0348 13.1795L15.9934 13.1795C15.8876 13.8054 15.6795 14.4096 15.3775 14.968L17.1466 15.8525C17.2609 15.9085 17.363 15.9865 17.447 16.0821C17.531 16.1777 17.5953 16.289 17.6361 16.4096C17.6769 16.5301 17.6934 16.6576 17.6847 16.7845C17.676 16.9115 17.6422 17.0355 17.5854 17.1493C17.5285 17.2632 17.4497 17.3647 17.3535 17.4479C17.2572 17.5312 17.1454 17.5946 17.0246 17.6344C16.9037 17.6743 16.7761 17.6898 16.6492 17.6801C16.5224 17.6704 16.3986 17.6357 16.2852 17.578L14.1586 16.5147C13.0972 17.4738 11.7167 18.0037 10.2861 18.001L7.71465 18.001C6.28445 18.0033 4.90452 17.4735 3.84336 16.5147L1.71679 17.578C1.60337 17.6357 1.47965 17.6704 1.35276 17.6801C1.22586 17.6898 1.09831 17.6743 0.977444 17.6344C0.85658 17.5946 0.744799 17.5312 0.648546 17.4479C0.552292 17.3647 0.473471 17.2632 0.416625 17.1493C0.359779 17.0355 0.326034 16.9115 0.317335 16.7845C0.308636 16.6576 0.325155 16.5301 0.36594 16.4096C0.406725 16.289 0.470969 16.1777 0.554968 16.0821C0.638966 15.9865 0.741059 15.9085 0.855358 15.8525L2.6245 14.968C2.3225 14.4096 2.11443 13.8054 2.00864 13.1795L0.967216 13.1795C0.711471 13.1795 0.466201 13.0779 0.285362 12.8971C0.104524 12.7163 0.00292969 12.471 0.00292969 12.2153C0.00292969 11.9595 0.104524 11.7142 0.285362 11.5334C0.466201 11.3526 0.711471 11.251 0.967216 11.251L1.92893 11.251L1.92893 0.643825C1.92905 0.524403 1.96244 0.407377 2.02534 0.305866C2.08825 0.204355 2.17819 0.122373 2.28507 0.0691105ZM11.7312 9.96525C11.987 9.96525 12.2322 9.86366 12.4131 9.68282C12.5939 9.50198 12.6955 9.25671 12.6955 9.00097C12.6955 8.74522 12.5939 8.49995 12.4131 8.31912C12.2322 8.13828 11.987 8.03668 11.7312 8.03668C11.4755 8.03668 11.2302 8.13828 11.0494 8.31912C10.8685 8.49995 10.7669 8.74522 10.7669 9.00097C10.7669 9.25671 10.8685 9.50198 11.0494 9.68282C11.2302 9.86366 11.4755 9.96525 11.7312 9.96525ZM6.26693 9.96525C6.52268 9.96525 6.76795 9.86366 6.94878 9.68282C7.12962 9.50198 7.23122 9.25671 7.23122 9.00097C7.23122 8.74522 7.12962 8.49995 6.94878 8.31912C6.76795 8.13828 6.52268 8.03668 6.26693 8.03668C6.01119 8.03668 5.76592 8.13828 5.58508 8.31912C5.40424 8.49995 5.30265 8.74522 5.30265 9.00097C5.30265 9.25671 5.40424 9.50198 5.58508 9.68282C5.76592 9.86366 6.01119 9.96525 6.26693 9.96525ZM7.42022 12.0288C7.46025 11.8967 7.54176 11.781 7.65267 11.6988C7.76359 11.6166 7.89802 11.5723 8.03607 11.5724L9.96465 11.5724C10.1026 11.5725 10.2368 11.617 10.3475 11.6992C10.4582 11.7815 10.5396 11.8972 10.5795 12.0292C10.6194 12.1612 10.6158 12.3026 10.5692 12.4324C10.5226 12.5622 10.4355 12.6736 10.3208 12.7501L9.3565 13.393C9.251 13.4632 9.12709 13.5006 9.00036 13.5006C8.87363 13.5006 8.74972 13.4632 8.64422 13.393L7.67993 12.7501C7.56518 12.6738 7.478 12.5626 7.43124 12.433C7.38448 12.3033 7.38061 12.1621 7.42022 12.0301" fill="black"/>
</g>
<defs>
<clipPath id="clip0_855_2191">
<rect width="18" height="18" fill="white"/>
</clipPath>
</defs>
</svg>
