<svg width="64" height="64" viewBox="0 0 64 64" xmlns="http://www.w3.org/2000/svg">
  <!-- ANCHOR: cat_walking_sprite -->
  <!-- REUSED: Cat base structure with neutral walking pose -->
  <g class="cat-body">
    <!-- Main body -->
    <ellipse cx="32" cy="45" rx="18" ry="12" fill="#4A5568"/>
    
    <!-- Head -->
    <circle cx="32" cy="25" r="15" fill="#4A5568"/>
    
    <!-- Ears -->
    <polygon points="20,15 25,8 30,15" fill="#4A5568"/>
    <polygon points="34,15 39,8 44,15" fill="#4A5568"/>
    
    <!-- Inner ears -->
    <polygon points="22,14 25,10 28,14" fill="#E2E8F0"/>
    <polygon points="36,14 39,10 42,14" fill="#E2E8F0"/>
    
    <!-- Eyes (alert, forward-looking) -->
    <circle cx="27" cy="22" r="2" fill="#48BB78"/>
    <circle cx="37" cy="22" r="2" fill="#48BB78"/>
    
    <!-- Eye shine -->
    <circle cx="27.5" cy="21.5" r="0.5" fill="white"/>
    <circle cx="37.5" cy="21.5" r="0.5" fill="white"/>
    
    <!-- Nose -->
    <polygon points="32,26 30,28 34,28" fill="#F56565"/>
    
    <!-- Mouth -->
    <path d="M32 28 Q29 30 27 29" stroke="#4A5568" stroke-width="1" fill="none"/>
    <path d="M32 28 Q35 30 37 29" stroke="#4A5568" stroke-width="1" fill="none"/>
    
    <!-- Whiskers -->
    <line x1="18" y1="24" x2="25" y2="25" stroke="#4A5568" stroke-width="1"/>
    <line x1="18" y1="27" x2="25" y2="27" stroke="#4A5568" stroke-width="1"/>
    <line x1="39" y1="25" x2="46" y2="24" stroke="#4A5568" stroke-width="1"/>
    <line x1="39" y1="27" x2="46" y2="27" stroke="#4A5568" stroke-width="1"/>
    
    <!-- Tail (neutral walking position) -->
    <path d="M50 45 Q55 35 52 25" stroke="#4A5568" stroke-width="6" fill="none" stroke-linecap="round"/>
    
    <!-- UPDATED COMMENTS: Paws in neutral walking stance -->
    <ellipse cx="24" cy="55" rx="3" ry="2" fill="#4A5568"/>
    <ellipse cx="32" cy="56" rx="3" ry="2" fill="#4A5568"/>
    <ellipse cx="40" cy="55" rx="3" ry="2" fill="#4A5568"/>
  </g>
</svg>