<svg width="24" height="24" viewBox="0 0 24 24" fill="none" xmlns="http://www.w3.org/2000/svg">
<path d="M8.1 21.213C6.88334 20.6877 5.825 19.975 4.925 19.075C4.025 18.175 3.31267 17.1167 2.788 15.9C2.26333 14.6833 2.00067 13.3833 2 12C1.99933 10.6167 2.262 9.31667 2.788 8.1C3.314 6.88334 4.02633 5.825 4.925 4.925C5.82367 4.025 6.882 3.31267 8.1 2.788C9.318 2.26333 10.618 2.00067 12 2C13.382 1.99933 14.682 2.262 15.9 2.788C17.118 3.314 18.1763 4.02633 19.075 4.925C19.9737 5.82367 20.6863 6.882 21.213 8.1C21.7397 9.318 22.002 10.618 22 12C21.998 13.382 21.7353 14.682 21.212 15.9C20.6887 17.118 19.9763 18.1763 19.075 19.075C18.1737 19.9737 17.1153 20.6863 15.9 21.213C14.6847 21.7397 13.3847 22.002 12 22C10.6153 21.998 9.31534 21.7363 8.1 21.213ZM12 20C12.9 20 13.7667 19.8543 14.6 19.563C15.4333 19.2717 16.2 18.8507 16.9 18.3L5.7 7.1C5.15 7.8 4.729 8.56667 4.437 9.4C4.145 10.2333 3.99933 11.1 4 12C4 14.2333 4.775 16.125 6.325 17.675C7.875 19.225 9.76667 20 12 20ZM18.3 16.9C18.85 16.2 19.271 15.4333 19.563 14.6C19.855 13.7667 20.0007 12.9 20 12C20 9.76667 19.225 7.875 17.675 6.325C16.125 4.775 14.2333 4 12 4C11.1 4 10.2333 4.14567 9.4 4.437C8.56667 4.72833 7.8 5.14933 7.1 5.7L18.3 16.9Z" fill="white"/>
</svg>
