<svg width="24" height="24" viewBox="0 0 24 24" fill="none" xmlns="http://www.w3.org/2000/svg">
<path d="M12.5 1.25C12.5 1.05109 12.421 0.860322 12.2803 0.71967C12.1397 0.579018 11.9489 0.5 11.75 0.5C11.5511 0.5 11.3603 0.579018 11.2197 0.71967C11.079 0.860322 11 1.05109 11 1.25V9.94L6.447 5.385C6.37785 5.31334 6.29512 5.25616 6.20363 5.21681C6.11215 5.17746 6.01374 5.15673 5.91416 5.15581C5.81458 5.1549 5.71581 5.17383 5.62362 5.2115C5.53143 5.24917 5.44766 5.30482 5.37721 5.3752C5.30676 5.44559 5.25103 5.5293 5.21328 5.62146C5.17552 5.71361 5.1565 5.81236 5.15732 5.91194C5.15813 6.01153 5.17878 6.10995 5.21804 6.20147C5.2573 6.293 5.3144 6.37578 5.386 6.445L9.94 11H1.25C1.05109 11 0.860322 11.079 0.71967 11.2197C0.579018 11.3603 0.5 11.5511 0.5 11.75C0.5 11.9489 0.579018 12.1397 0.71967 12.2803C0.860322 12.421 1.05109 12.5 1.25 12.5H9.94L5.386 17.053C5.24931 17.1944 5.17363 17.3838 5.17524 17.5805C5.17686 17.7771 5.25565 17.9652 5.39464 18.1044C5.53363 18.2435 5.7217 18.3225 5.91835 18.3243C6.115 18.3261 6.30448 18.2506 6.446 18.114L11 13.561V22.25C11 22.4489 11.079 22.6397 11.2197 22.7803C11.3603 22.921 11.5511 23 11.75 23C11.9489 23 12.1397 22.921 12.2803 22.7803C12.421 22.6397 12.5 22.4489 12.5 22.25V13.56L17.053 18.114C17.1944 18.2507 17.3838 18.3264 17.5805 18.3248C17.7771 18.3231 17.9652 18.2444 18.1044 18.1054C18.2435 17.9664 18.3225 17.7783 18.3243 17.5817C18.3261 17.385 18.2506 17.1955 18.114 17.054L13.561 12.5H22.25C22.4489 12.5 22.6397 12.421 22.7803 12.2803C22.921 12.1397 23 11.9489 23 11.75C23 11.5511 22.921 11.3603 22.7803 11.2197C22.6397 11.079 22.4489 11 22.25 11H13.56L18.114 6.447C18.1857 6.37785 18.2428 6.29512 18.2822 6.20363C18.3215 6.11215 18.3423 6.01374 18.3432 5.91416C18.3441 5.81458 18.3252 5.71581 18.2875 5.62362C18.2498 5.53143 18.1942 5.44766 18.1238 5.37721C18.0534 5.30676 17.9697 5.25103 17.8775 5.21328C17.7854 5.17552 17.6866 5.1565 17.5871 5.15732C17.4875 5.15813 17.389 5.17878 17.2975 5.21804C17.206 5.2573 17.1232 5.3144 17.054 5.386L12.5 9.939V1.25Z" fill="white"/>
</svg>
