<svg width="24" height="24" viewBox="0 0 24 24" fill="none" xmlns="http://www.w3.org/2000/svg">
<g clip-path="url(#clip0_255_4520)">
<path d="M11.9997 0.480469C5.63612 0.480469 0.478516 5.63807 0.478516 12.0005C0.478358 13.5135 0.776255 15.0117 1.35519 16.4096C1.93413 17.8075 2.78277 19.0777 3.85265 20.1475C4.92252 21.2174 6.19267 22.0661 7.59056 22.645C8.98844 23.2239 10.4867 23.5218 11.9997 23.5217C18.3609 23.5217 23.5197 18.3641 23.5197 12.0005C23.5197 5.63807 18.3609 0.480469 11.9997 0.480469ZM13.0749 4.63967C14.1981 4.63967 14.5281 5.29127 14.5281 6.03647C14.5281 6.96647 13.7841 7.82687 12.5133 7.82687C11.4501 7.82687 10.9437 7.29287 10.9749 6.40847C10.9749 5.66327 11.5977 4.63967 13.0749 4.63967ZM10.1973 18.9005C9.42932 18.9005 8.86892 18.4337 9.40532 16.3877L10.2849 12.7577C10.4373 12.1769 10.4625 11.9441 10.2849 11.9441C10.0557 11.9441 9.05852 12.3449 8.47052 12.7409L8.08772 12.1133C9.95372 10.5545 12.0993 9.64007 13.0173 9.64007C13.7853 9.64007 13.9125 10.5473 13.5297 11.9441L12.5217 15.7601C12.3429 16.4345 12.4197 16.6673 12.5985 16.6673C12.8289 16.6673 13.5825 16.3889 14.3241 15.8045L14.7585 16.3877C12.9429 18.2021 10.9641 18.9005 10.1973 18.9005Z" fill="white"/>
</g>
<defs>
<clipPath id="clip0_255_4520">
<rect width="24" height="24" fill="white"/>
</clipPath>
</defs>
</svg>
