<svg width="20" height="20" viewBox="0 0 20 20" fill="none" xmlns="http://www.w3.org/2000/svg">
<g clip-path="url(#clip0_866_2026)">
<path d="M17.2687 4.9974C16.98 4.50115 16.4487 4.16406 15.8333 4.16406H10V4.9974H17.2687ZM2.5 12.4974H17.5V13.3307H2.5V12.4974ZM10 9.16406H17.5V9.9974H10V9.16406ZM10 7.4974H17.5V8.33073H10V7.4974ZM2.5 10.8307H17.5V11.6641H2.5V10.8307ZM4.16667 14.9974H15.8333C16.4487 14.9974 16.98 14.6603 17.2687 14.1641H2.73125C3.02 14.6603 3.55125 14.9974 4.16667 14.9974ZM10 5.83073H17.5V6.66406H10V5.83073Z" fill="#B22334"/>
<path d="M2.52833 13.6163C2.53528 13.6551 2.54347 13.6936 2.55292 13.7317C2.56403 13.7733 2.57681 13.8144 2.59125 13.855C2.62833 13.9629 2.67333 14.0671 2.73 14.1646L2.73125 14.1667H17.2687L17.2696 14.165C17.326 14.067 17.3724 13.9636 17.4079 13.8563C17.435 13.7779 17.4561 13.6977 17.4712 13.6163C17.4883 13.5246 17.5 13.4304 17.5 13.3333H2.5C2.5 13.4304 2.51167 13.5242 2.52833 13.6163ZM2.5 11.6667H17.5V12.5H2.5V11.6667ZM2.5 10V10.8333H17.5V10H10H2.5ZM10 8.33333H17.5V9.16667H10V8.33333ZM10 6.66667H17.5V7.5H10V6.66667ZM2.55333 5.435C2.56375 5.3925 2.57833 5.35208 2.59167 5.31125C2.57729 5.35199 2.5645 5.39327 2.55333 5.435ZM10 5.83333H17.5C17.5 5.73625 17.4883 5.64208 17.4712 5.55C17.4567 5.46838 17.4353 5.3881 17.4075 5.31C17.3719 5.20221 17.3254 5.09834 17.2687 5H10V5.83333Z" fill="#EEEEEE"/>
<path d="M10 4.16406H4.16667C3.72464 4.16406 3.30072 4.33966 2.98816 4.65222C2.67559 4.96478 2.5 5.3887 2.5 5.83073L2.5 9.9974H10V4.16406Z" fill="#3C3B6E"/>
<path d="M3.33301 5.3025L3.59051 5.48958L3.49217 5.79167L3.74926 5.605L4.00676 5.79167L3.90842 5.48958L4.16592 5.3025H3.84759L3.74926 5L3.65134 5.3025H3.33301ZM4.16634 6.13583L4.42384 6.32292L4.32551 6.625L4.58259 6.43833L4.84009 6.625L4.74176 6.32292L4.99926 6.13583H4.68092L4.58259 5.83333L4.48467 6.13583H4.16634ZM5.83301 6.13583L6.09051 6.32292L5.99217 6.625L6.24926 6.43833L6.50676 6.625L6.40842 6.32292L6.66592 6.13583H6.34759L6.24926 5.83333L6.15134 6.13583H5.83301ZM7.49967 6.13583L7.75717 6.32292L7.65884 6.625L7.91592 6.43833L8.17342 6.625L8.07509 6.32292L8.33259 6.13583H8.01426L7.91592 5.83333L7.81801 6.13583H7.49967ZM4.16634 7.8025L4.42384 7.98958L4.32551 8.29167L4.58259 8.105L4.84009 8.29167L4.74176 7.98958L4.99926 7.8025H4.68092L4.58259 7.5L4.48467 7.8025H4.16634ZM5.83301 7.8025L6.09051 7.98958L5.99217 8.29167L6.24926 8.105L6.50676 8.29167L6.40842 7.98958L6.66592 7.8025H6.34759L6.24926 7.5L6.15134 7.8025H5.83301ZM7.49967 7.8025L7.75717 7.98958L7.65884 8.29167L7.91592 8.105L8.17342 8.29167L8.07509 7.98958L8.33259 7.8025H8.01426L7.91592 7.5L7.81801 7.8025H7.49967ZM4.99967 5.3025L5.25717 5.48958L5.15884 5.79167L5.41592 5.605L5.67342 5.79167L5.57509 5.48958L5.83259 5.3025H5.51426L5.41592 5L5.31801 5.3025H4.99967ZM6.66634 5.3025L6.92384 5.48958L6.82551 5.79167L7.08259 5.605L7.34009 5.79167L7.24176 5.48958L7.49926 5.3025H7.18092L7.08259 5L6.98467 5.3025H6.66634ZM8.33301 5.3025L8.59051 5.48958L8.49217 5.79167L8.74926 5.605L9.00676 5.79167L8.90842 5.48958L9.16592 5.3025H8.84759L8.74926 5L8.65134 5.3025H8.33301ZM3.33301 6.96917L3.59051 7.15625L3.49217 7.45833L3.74926 7.27167L4.00676 7.45833L3.90842 7.15625L4.16592 6.96917H3.84759L3.74926 6.66667L3.65134 6.96917H3.33301ZM5.15884 7.45833L5.41592 7.27167L5.67342 7.45833L5.57509 7.15625L5.83259 6.96917H5.51426L5.41592 6.66667L5.31801 6.96917H4.99967L5.25717 7.15625L5.15884 7.45833ZM6.66634 6.96917L6.92384 7.15625L6.82551 7.45833L7.08259 7.27167L7.34009 7.45833L7.24176 7.15625L7.49926 6.96917H7.18092L7.08259 6.66667L6.98467 6.96917H6.66634ZM8.33301 6.96917L8.59051 7.15625L8.49217 7.45833L8.74926 7.27167L9.00676 7.45833L8.90842 7.15625L9.16592 6.96917H8.84759L8.74926 6.66667L8.65134 6.96917H8.33301ZM3.33301 8.63583L3.59051 8.82292L3.49217 9.125L3.74926 8.93833L4.00676 9.125L3.90842 8.82292L4.16592 8.63583H3.84759L3.74926 8.33333L3.65134 8.63583H3.33301ZM5.15884 9.125L5.41592 8.93833L5.67342 9.125L5.57509 8.82292L5.83259 8.63583H5.51426L5.41592 8.33333L5.31801 8.63583H4.99967L5.25717 8.82292L5.15884 9.125ZM6.66634 8.63583L6.92384 8.82292L6.82551 9.125L7.08259 8.93833L7.34009 9.125L7.24176 8.82292L7.49926 8.63583H7.18092L7.08259 8.33333L6.98467 8.63583H6.66634ZM8.33301 8.63583L8.59051 8.82292L8.49217 9.125L8.74926 8.93833L9.00676 9.125L8.90842 8.82292L9.16592 8.63583H8.84759L8.74926 8.33333L8.65134 8.63583H8.33301Z" fill="white"/>
</g>
<defs>
<clipPath id="clip0_866_2026">
<rect width="15" height="15" fill="white" transform="translate(2.5 2.08203)"/>
</clipPath>
</defs>
</svg>
