<svg width="24" height="24" viewBox="0 0 24 24" fill="none" xmlns="http://www.w3.org/2000/svg">
<path fill-rule="evenodd" clip-rule="evenodd" d="M2.234 4.357C2.08282 4.53715 1.99996 4.76482 2 5V17C2 17.7956 2.31607 18.5587 2.87868 19.1213C3.44129 19.6839 4.20435 20 5 20H19C19.7956 20 20.5587 19.6839 21.1213 19.1213C21.6839 18.5587 22 17.7956 22 17V5.01C22.0014 4.86092 21.9694 4.71342 21.9064 4.57828C21.8435 4.44315 21.7511 4.32381 21.636 4.229C21.4581 4.08203 21.2348 4.00112 21.004 4H3C2.854 3.99998 2.70977 4.03193 2.57743 4.09361C2.4451 4.15528 2.32788 4.24518 2.234 4.357ZM4 7.414V17C4 17.2652 4.10536 17.5196 4.29289 17.7071C4.48043 17.8946 4.73478 18 5 18H19C19.2652 18 19.5196 17.8946 19.7071 17.7071C19.8946 17.5196 20 17.2652 20 17V7.414L12.707 14.707C12.5195 14.8945 12.2652 14.9998 12 14.9998C11.7348 14.9998 11.4805 14.8945 11.293 14.707L4 7.414Z" fill="white"/>
</svg>
