<svg width="24" height="24" viewBox="0 0 24 24" fill="none" xmlns="http://www.w3.org/2000/svg">
<path d="M19.0712 13.1437L13.4142 18.8017C13.0391 19.1767 12.5305 19.3873 12.0002 19.3873C11.4699 19.3873 10.9613 19.1767 10.5862 18.8017L4.9292 13.1447C4.46157 12.6812 4.09011 12.1298 3.83613 11.5223C3.58216 10.9148 3.45067 10.2632 3.44923 9.6047C3.44779 8.94625 3.57642 8.294 3.82773 7.68539C4.07904 7.07679 4.44809 6.52381 4.91369 6.05822C5.37928 5.59262 5.93226 5.22357 6.54086 4.97226C7.14947 4.72095 7.80172 4.59232 8.46017 4.59376C9.11862 4.5952 9.7703 4.72669 10.3778 4.98066C10.9853 5.23464 11.5367 5.6061 12.0002 6.07373C12.9418 5.15561 14.2072 4.6454 15.5222 4.65364C16.8373 4.66188 18.0962 5.1879 19.0262 6.11776C19.9562 7.04761 20.4824 8.30643 20.4908 9.62151C20.4992 10.9366 19.9892 12.202 19.0712 13.1437Z" stroke="#101828" stroke-width="2" stroke-linecap="round" stroke-linejoin="round"/>
</svg>
