<svg width="24" height="24" viewBox="0 0 24 24" fill="none" xmlns="http://www.w3.org/2000/svg">
<path d="M20.7101 3.65451C20.7101 3.65451 22.6526 2.89701 22.4901 4.73651C22.4366 5.49401 21.9511 8.14551 21.5731 11.013L20.2781 19.508C20.2781 19.508 20.1701 20.7525 19.1986 20.969C18.2276 21.185 16.7706 20.2115 16.5006 19.995C16.2846 19.8325 12.4536 17.3975 11.1046 16.2075C10.7266 15.8825 10.2946 15.2335 11.1586 14.476L16.8246 9.06501C17.4721 8.41501 18.1196 6.90001 15.4216 8.74001L7.86665 13.88C7.86665 13.88 7.00315 14.4215 5.38465 13.9345L1.87665 12.852C1.87665 12.852 0.581647 12.0405 2.79415 11.229C8.19065 8.68601 14.8281 6.08901 20.7096 3.65401" fill="white"/>
</svg>
