<svg width="24" height="24" viewBox="0 0 24 24" fill="none" xmlns="http://www.w3.org/2000/svg">
<path d="M12 21C16.9706 21 21 16.9706 21 12C21 7.02944 16.9706 3 12 3C7.02944 3 3 7.02944 3 12C3 16.9706 7.02944 21 12 21Z" stroke="white" stroke-width="2" stroke-linecap="round" stroke-linejoin="round"/>
<path d="M11.307 9.739L15 9L14.261 12.693C14.1836 13.0801 13.9935 13.4356 13.7145 13.7148C13.4354 13.994 13.08 14.1844 12.693 14.262L9 15L9.739 11.307C9.81654 10.9201 10.0068 10.5648 10.2858 10.2858C10.5648 10.0068 10.9201 9.81654 11.307 9.739Z" stroke="white" stroke-width="2" stroke-linecap="round" stroke-linejoin="round"/>
</svg>
