<svg width="24" height="24" viewBox="0 0 24 24" fill="none" xmlns="http://www.w3.org/2000/svg">
<g opacity="0.6">
<path d="M14.999 12C14.999 12.7956 14.683 13.5587 14.1203 14.1213C13.5577 14.6839 12.7947 15 11.999 15C11.2034 15 10.4403 14.6839 9.8777 14.1213C9.31509 13.5587 8.99902 12.7956 8.99902 12C8.99902 11.2044 9.31509 10.4413 9.8777 9.87868C10.4403 9.31607 11.2034 9 11.999 9C12.7947 9 13.5577 9.31607 14.1203 9.87868C14.683 10.4413 14.999 11.2044 14.999 12Z" stroke="#0E1621" stroke-width="2" stroke-linecap="round" stroke-linejoin="round"/>
<path d="M1.99805 12C3.59805 7.903 7.33405 5 11.998 5C16.662 5 20.398 7.903 21.998 12C20.398 16.097 16.662 19 11.998 19C7.33405 19 3.59805 16.097 1.99805 12Z" stroke="#0E1621" stroke-width="2" stroke-linecap="round" stroke-linejoin="round"/>
</g>
</svg>
